# AST/ASF file generated using VICON BodyLanguage
# -----------------------------------------------
:version 1.10
:name VICON
:units
  mass 1.0
  length 0.45
  angle deg
:documentation
   .ast/.asf automatically generated from VICON data using
   VICON BodyBuilder and BodyLanguage model FoxedUp or BRILLIANT.MOD
:root
   order TX TY TZ RX RY RZ
   axis XYZ
   position 0 0 0  
   orientation 0 0 0 
:bonedata
  begin
     id 1 
     name lhipjoint
     direction 0.690799 -0.707083 0.151096 
     length 2.54797 
     axis 0 0 0  XYZ
  end
  begin
     id 2 
     name lfemur
     direction 0.34202 -0.939693 0  
     length 7.21646  
     axis 0 0 20  XYZ
    dof rx ry rz
    limits (-160.0 20.0)
           (-70.0 70.0)
           (-60.0 70.0)
  end
  begin
     id 3 
     name ltibia
     direction 0.34202 -0.939693 0   
     length 8.16759   
     axis 0 0 20   XYZ
    dof rx
    limits (-10.0 170.0)
  end
  begin
     id 4 
     name lfoot
     direction 0.0487203 -0.133858 0.989802   
     length 1.93375   
     axis -90 7.62852e-016 20   XYZ
    dof rx rz
    limits (-45.0 90.0)
           (-70.0 20.0)
  end
  begin
     id 5 
     name ltoes
     direction 1.53453e-011 -4.21783e-011 1   
     length 0.979747   
     axis -90 7.62852e-016 20   XYZ
    dof rx
    limits (-90.0 20.0)
  end
  begin
     id 6 
     name rhipjoint
     direction -0.694693 -0.703425 0.150315   
     length 2.56122  
     axis 0 0 0  XYZ 
  end
  begin
     id 7 
     name rfemur
     direction -0.34202 -0.939693 0   
     length 7.36786   
     axis 0 0 -20   XYZ
    dof rx ry rz
    limits (-160.0 20.0)
           (-70.0 70.0)
           (-70.0 60.0)
  end
  begin
     id 8 
     name rtibia
     direction -0.34202 -0.939693 0   
     length 8.07288   
     axis 0 0 -20   XYZ
    dof rx
    limits (-10.0 170.0)
 end
 begin
     id 9 
     name rfoot
     direction -0.0428397 -0.117701 0.992125   
     length 1.88295  
     axis -90 -7.62852e-016 -20   XYZ
    dof rx rz
    limits (-45.0 90.0)
           (-20.0 70.0)
  end
  begin
     id 10 
     name rtoes
     direction -1.53456e-011 -4.2187e-011 1   
     length 0.955578   
     axis -90 -7.62852e-016 -20   XYZ
    dof rx
    limits (-90.0 20.0)
  end
  begin
     id 11 
     name lowerback
     direction 0.0288145 0.999398 -0.0193241   
     length 1.92149   
     axis 0 0 0   XYZ
    dof rx ry rz
    limits (-20.0 45.0)
           (-30.0 30.0)
           (-30.0 30.0)
  end
  begin
     id 12 
     name upperback
     direction 0.0233784 0.998099 0.0570278   
     length 1.90435   
     axis 0 0 0   XYZ
    dof rx ry rz
    limits (-20.0 45.0)
           (-30.0 30.0)
           (-30.0 30.0)
  end
  begin
     id 13 
     name thorax
     direction 0.0096694 0.997833 0.0650817   
     length 1.9111   
     axis 0 0 0   XYZ
    dof rx ry rz
    limits (-20.0 45.0)
           (-30.0 30.0)
           (-30.0 30.0)
  end
  begin
     id 14 
     name lowerneck
     direction 0.00516803 0.999916 0.0118722   
     length 1.74664   
     axis 0 0 0   XYZ
    dof rx ry rz
    limits (-20.0 45.0)
           (-30.0 30.0)
           (-30.0 30.0)
  end
  begin
     id 15 
     name upperneck
     direction -0.0510851 0.996117 -0.071696   
     length 1.68498   
     axis 0 0 0   XYZ
    dof rx ry rz
    limits (-20.0 45.0)
           (-30.0 30.0)
           (-30.0 30.0)
  end
  begin
     id 16
     name head
     direction -0.019188 0.999436 -0.0275702  
     length 1.83483  
     axis 0 0 0   XYZ
    dof rx ry rz
    limits (-20.0 45.0)
           (-30.0 30.0)
           (-30.0 30.0)
  end
  begin
     id 17 
     name lclavicle
     direction 0.967006 0.248456 -0.0562957  
     length 3.39395  
     axis 0 0 0   XYZ
    dof ry rz
    limits (-20.0 10.0)
           (0.0 20.0)
  end
  begin
     id 18 
     name lhumerus
     direction 1 -4.48962e-011 -5.62711e-019   
     length 5.24318   
     axis 180 -30 -90   XYZ
    dof rx ry rz
    limits (-60.0 90.0)
           (-90.0 90.0)
           (-90.0 90.0)
  end
  begin
     id 19
     name lradius
     direction 1 -4.48966e-011 7.90625e-027   
     length 2.98999   
     axis 180 -30 -90   XYZ
    dof rx
    limits (-10.0 170.0)
  end
  begin
     id 20
     name lwrist
     direction 1 -4.48959e-011 1.61068e-026   
     length 1.49499   
     axis -9.31229e-015 90 90   XYZ
    dof ry
    limits (-180.0 0.0)
 end
  begin
     id 21 
     name lhand
     direction 1 -4.49017e-011 3.22136e-026   
     length 0.726745   
     axis -2.0555e-014 90 90   XYZ
    dof rx rz
    limits (-90.0 90.0)
           (-45.0 45.0)
  end
  begin
     id 22 
     name lfingers
     direction 1 -4.4898e-011 6.44272e-026   
     length 0.58592   
     axis -4.11101e-014 90 90   XYZ
    dof rx
    limits (0.0 90.0)
  end
  begin
     id 23
     name lthumb
     direction 0.707107 -6.34922e-011 0.707107   
     length 0.841268   
     axis -90 45 2.85299e-015   XYZ
    dof rx rz
    limits (-45.0 45.0)
           (-45.0 45.0)
  end
  begin
     id 24 
     name rclavicle
     direction -0.972232 0.230238 0.0419005   
     length 3.40416  
     axis 0 0 0   XYZ 
    dof ry rz
    limits (-10.0 20.0)
           (-20.0 0.0)
  end
  begin
     id 25 
     name rhumerus
     direction -1 -4.48976e-011 2.48487e-027  
     length 5.37045   
     axis 180 30 90   XYZ
    dof rx ry rz
    limits (-90.0 60.0)
           (-90.0 90.0)
           (-90.0 90.0)
  end
  begin
     id 26 
     name rradius
     direction -1 -4.48942e-011 7.87951e-027   
     length 2.92792   
     axis 180 30 90   XYZ
    dof rx
    limits (-10.0 170.0)
  end
  begin
     id 27 
     name rwrist
     direction -1 -4.48969e-011 1.61068e-026   
     length 1.46396   
     axis -9.31229e-015 -90 -90   XYZ
    dof ry
    limits (-180.0 0.0)
  end
  begin
     id 28
     name rhand
     direction -1 -4.49043e-011 3.22136e-026   
     length 0.784497   
     axis -2.0555e-014 -90 -90   XYZ
    dof rx rz
    limits (-90.0 90.0)
           (-45.0 45.0)
  end
  begin
     id 29
     name rfingers
     direction -1 -4.48823e-011 6.44272e-026   
     length 0.632482   
     axis -4.11101e-014 -90 -90   XYZ
    dof rx
    limits (0.0 90.0)
  end
  begin
     id 30
     name rthumb
     direction -0.707107 -6.34923e-011 0.707107   
     length 0.908121   
     axis -90 -45 -2.85299e-015   XYZ
    dof rx rz
    limits (-45.0 45.0)
           (-45.0 45.0)
  end
:hierarchy
  begin
    root lhipjoint rhipjoint lowerback
    lhipjoint lfemur
    lfemur ltibia
    ltibia lfoot
    lfoot ltoes
    rhipjoint rfemur
    rfemur rtibia
    rtibia rfoot
    rfoot rtoes
    lowerback upperback
    upperback thorax
    thorax lowerneck lclavicle rclavicle
    lowerneck upperneck
    upperneck head
    lclavicle lhumerus
    lhumerus lradius
    lradius lwrist
    lwrist lhand lthumb
    lhand lfingers
    rclavicle rhumerus
    rhumerus rradius
    rradius rwrist
    rwrist rhand rthumb
    rhand rfingers
  end

#!OML:ASF F:\VICON\USERDATA\INSTALL\rory3\rory3.ASF
:FULLY-SPECIFIED
:DEGREES
250
root 1.01679 18.1907 0.494949 25.7804 7.28537 -1.07019
lowerback 10.4659 -1.35107 4.61049
upperback -3.03967 -1.05588 1.20019
thorax -9.21227 -0.732009 -1.12106
lowerneck 4.69364 1.57235 2.35134
upperneck 5.13108 3.82106 -43.9107
head 1.47189 1.92222 -16.2606
rclavicle 6.85807e-015 -2.18663e-015
rhumerus -20.7693 9.2309 -83.6824
rradius 126.789
rwrist 33.8188
rhand 9.8281 -3.01608
rfingers 7.12502
rthumb 34.9633 -29.5807
lclavicle 6.85807e-015 -2.18663e-015
lhumerus -35.0879 -7.32537 79.9162
lradius 132.459
lwrist -26.7753
lhand -5.18155 23.2665
lfingers 7.12502
lthumb 20.619 52.1914
rfemur -31.7738 25.1687 5.9226
rtibia 13.0461
rfoot -37.2406 -31.7942
rtoes 43.7257
lfemur -36.1268 -11.0534 -13.857
ltibia 22.0438
lfoot -4.15779 10.9106
ltoes -19.2036
251
root 1.01664 18.1899 0.49069 25.7795 7.35513 -1.11079
lowerback 10.455 -1.38107 4.68304
upperback -3.03331 -1.08373 1.23394
thorax -9.20187 -0.748164 -1.12084
lowerneck 4.66224 1.58937 2.27589
upperneck 5.25848 3.89873 -43.9437
head 1.5366 1.93955 -16.2654
rclavicle 0 2.18663e-015
rhumerus -20.7034 9.27866 -83.6492
rradius 126.773
rwrist 33.8241
rhand 9.58421 -3.11671
rfingers 7.12502
rthumb 34.7319 -29.735
lclavicle 0 2.18663e-015
lhumerus -35.1358 -7.38306 79.9958
lradius 132.51
lwrist -26.8723
lhand -5.27994 23.3995
lfingers 7.12502
lthumb 20.5244 52.3346
rfemur -31.7721 25.1794 5.9649
rtibia 13.0229
rfoot -37.4027 -31.7099
rtoes 43.9072
lfemur -36.1597 -11.0633 -13.7932
ltibia 22.0428
lfoot -4.16115 10.8751
ltoes -18.9624
252
root 1.01627 18.1902 0.488224 25.7628 7.35388 -1.09297
lowerback 10.4637 -1.39445 4.65368
upperback -3.03438 -1.10387 1.24912
thorax -9.20818 -0.755834 -1.0842
lowerneck 4.64813 1.61498 2.23886
upperneck 5.40819 3.99913 -43.9981
head 1.61142 1.96744 -16.2931
rclavicle 3.47873e-015 -7.95139e-016
rhumerus -20.7027 9.35211 -83.6341
rradius 126.787
rwrist 33.8588
rhand 9.42467 -3.16616
rfingers 7.12502
rthumb 34.5805 -29.8192
lclavicle 3.47873e-015 -7.95139e-016
lhumerus -35.1569 -7.4268 80.0405
lradius 132.545
lwrist -26.8698
lhand -5.37793 23.4986
lfingers 7.12502
lthumb 20.4303 52.4438
rfemur -31.7286 25.1325 5.97648
rtibia 12.9996
rfoot -37.4414 -31.5765
rtoes 44.1769
lfemur -36.1498 -11.0642 -13.8178
ltibia 22.0476
lfoot -4.22087 10.8573
ltoes -18.7925
253
root 1.01583 18.191 0.48778 25.7483 7.31812 -1.07555
lowerback 10.4542 -1.38531 4.63123
upperback -3.04052 -1.09672 1.23187
thorax -9.20865 -0.751803 -1.09145
lowerneck 4.63513 1.62909 2.20285
upperneck 5.58845 4.09257 -43.9889
head 1.69103 1.98737 -16.2858
rclavicle 4.96962e-016 -5.76476e-015
rhumerus -20.7389 9.34512 -83.6668
rradius 126.761
rwrist 33.8528
rhand 9.53666 -3.14029
rfingers 7.12502
rthumb 34.6867 -29.7689
lclavicle 4.96962e-016 -5.76476e-015
lhumerus -35.1559 -7.4708 80.0092
lradius 132.556
lwrist -26.846
lhand -5.33724 23.5065
lfingers 7.12502
lthumb 20.4694 52.4475
rfemur -31.7061 25.1661 5.94848
rtibia 12.9843
rfoot -37.3987 -31.635
rtoes 44.0626
lfemur -36.1371 -11.0519 -13.8508
ltibia 22.0587
lfoot -4.16318 10.8595
ltoes -19.2321
254
root 1.01506 18.1912 0.486517 25.7358 7.30825 -1.08315
lowerback 10.4558 -1.38341 4.67182
upperback -3.04244 -1.0901 1.21129
thorax -9.21288 -0.751684 -1.13737
lowerneck 4.52011 1.61907 2.21482
upperneck 5.88228 4.21204 -44.0413
head 1.83469 1.99605 -16.3283
rclavicle 6.95746e-015 9.34288e-015
rhumerus -20.7166 9.35513 -83.7242
rradius 126.701
rwrist 33.8672
rhand 9.66524 -3.19012
rfingers 7.12502
rthumb 34.8088 -29.7906
lclavicle 6.95746e-015 9.34288e-015
lhumerus -35.1643 -7.47055 79.9722
lradius 132.554
lwrist -26.8904
lhand -5.29969 23.4224
lfingers 7.12502
lthumb 20.5054 52.3595
rfemur -31.6936 25.1744 5.96383
rtibia 12.9752
rfoot -37.3167 -31.7207
rtoes 43.9063
lfemur -36.1256 -11.0339 -13.8549
ltibia 22.0583
lfoot -4.09159 10.8577
ltoes -19.7918
255
root 1.01383 18.1899 0.482761 25.7292 7.29662 -1.0729
lowerback 10.4945 -1.38277 4.68884
upperback -3.04569 -1.08677 1.18348
thorax -9.23992 -0.752427 -1.17642
lowerneck 4.21542 1.59669 2.25396
upperneck 6.37034 4.41893 -44.1459
head 2.10248 2.00312 -16.4139
rclavicle 1.2921e-014 -1.68967e-014
rhumerus -20.7065 9.32414 -83.7885
rradius 126.667
rwrist 33.9586
rhand 9.57812 -3.22087
rfingers 7.12502
rthumb 34.7261 -29.8405
lclavicle 1.2921e-014 -1.68967e-014
lhumerus -35.1439 -7.48967 79.9306
lradius 132.561
lwrist -26.9381
lhand -5.17832 23.5093
lfingers 7.12502
lthumb 20.6221 52.4338
rfemur -31.7244 25.2147 5.92202
rtibia 12.9826
rfoot -37.1972 -31.8649
rtoes 43.7449
lfemur -36.1176 -11.0132 -13.8768
ltibia 22.0426
lfoot -4.04576 10.8618
ltoes -20.0296
256
root 1.01277 18.1885 0.47999 25.713 7.25235 -1.04861
lowerback 10.5124 -1.38837 4.65091
upperback -3.0262 -1.10028 1.1712
thorax -9.229 -0.756747 -1.16577
lowerneck 3.98995 1.60518 2.21905
upperneck 6.69867 4.59407 -44.2112
head 2.2977 2.02165 -16.4553
rclavicle -8.05078e-015 -6.16232e-015
rhumerus -20.7001 9.35763 -83.8116
rradius 126.699
rwrist 34.0008
rhand 9.50778 -3.27325
rfingers 7.12502
rthumb 34.6593 -29.9082
lclavicle -8.05078e-015 -6.16232e-015
lhumerus -35.0943 -7.49432 79.8959
lradius 132.557
lwrist -26.9214
lhand -5.18041 23.6215
lfingers 7.12502
lthumb 20.6201 52.5462
rfemur -31.746 25.209 5.89142
rtibia 13.0089
rfoot -37.1616 -31.8312
rtoes 43.7017
lfemur -36.0894 -11.0218 -13.9039
ltibia 22.0228
lfoot -4.00002 10.9123
ltoes -20.1185
